# xmcd
#
# Track frame offsets:
#	150
#	11033
#	23039
#	36185
#	49089
#	60917
#	77239
#	88283
#	99069
#	111447
#	128333
#	140717
#	152357
#	163506
#	175746
#	193711
#	215621
#	226608
#	239527
#	250019
#
# Disc length: 3506 seconds
#
# Revision: 1
# Processed by: cddbd v1.5.2PL0 Copyright (c) Steve Scherf et al.
# Submitted via: audiograbber 1.83.01
#
DISCID=f90db014
DTITLE=Various Artist - Back to 60's [CD3) - Les années Soul
DYEAR=1960
DGENRE=Soul
TTITLE0=Aretha Franklin - Respect
TTITLE1=Otis Redding - (Sittin'on) The dock of the bay
TTITLE2=Ben E King - Stand by me
TTITLE3=Percy Sledge - When a man loves a woman
TTITLE4=Sam and Dave - Soul Man
TTITLE5=Nina Simone - My baby just cares for me
TTITLE6=The Drifters - Save the last dance for me
TTITLE7=Dusty Springfield - Son of a preachers man
TTITLE8=Aretha Franklin - Chain of fools
TTITLE9=Ray Charles - Don't let the sun catch you crying
TTITLE10=Solomon burke - Everybody needs somebody to love
TTITLE11=Sam and Dave - Hold on, I'm coming
TTITLE12=Wilson Pickett - In the Midnight hour
TTITLE13=The Drifters - Under The Boardwalk
TTITLE14=Donny Hathaway - Sugar lee
TTITLE15=Esther Phillips - Release Me
TTITLE16=Wilson Pickett - Land of 1000 Dances
TTITLE17=Ray Charles - Let the good time roll
TTITLE18=Arthur Conley - Sweet soul Music
TTITLE19=Otis Redding - I've been loving you to long
EXTD=
EXTT0=
EXTT1=
EXTT2=
EXTT3=
EXTT4=
EXTT5=
EXTT6=
EXTT7=
EXTT8=
EXTT9=
EXTT10=
EXTT11=
EXTT12=
EXTT13=
EXTT14=
EXTT15=
EXTT16=
EXTT17=
EXTT18=
EXTT19=
PLAYORDER=
